<?xml version="1.0" encoding="UTF-8"?>
<svg fill="none" style="" version="1.1" viewBox="0 0 663.46 661.16" xmlns="http://www.w3.org/2000/svg" xmlns:cc="http://creativecommons.org/ns#" xmlns:dc="http://purl.org/dc/elements/1.1/" xmlns:rdf="http://www.w3.org/1999/02/22-rdf-syntax-ns#">
<metadata>
<rdf:rdf>
<cc:work rdf:about="">
<dc:format>image/svg+xml</dc:format>
<dc:type rdf:resource="http://purl.org/dc/dcmitype/StillImage"/>
</cc:work>
</rdf:rdf>
</metadata>
<defs>
<mask id="q" maskUnits="userSpaceOnUse">
<path class="WNHbHAPn_0" d="m144.82 1.6003e-4c-35.788-0.066009-63.901 20.296-84.886 46.134-38.79 54.082-59.021 117.26-59.733 180.47 1.7328 193.07 181.38 213.74 330.56 141.64 37.719-20.477 68.868-40.751 97.767-65.765 9.6531-9.4447 17.658-15.446 25.894-24.575 1.5737-1.7491 3.0541-3.4626 4.4084-5.1158 1.3543-1.6499 2.5826-3.2375 3.6518-4.7377 1.072-1.5005 1.9822-2.9126 2.7004-4.2122 0.72103-1.2995 1.2474-2.4874 1.549-3.5361 0.30158-1.0489 0.38108-1.9583 0.20014-2.7059-0.0905-0.37395-0.24674-0.70815-0.46881-0.99766-0.0685-0.0866-0.18643-0.14064-0.26593-0.21932-1.2364-0.69609-2.8567 0.3734-14.086 11.281-9.9546 9.6731-13.532 12.96-22.519 20.793-54.681 57.296-148.35 98.181-241.34 106.13-59.341 3.7403-90.958-13.1-118.26-35.129-59.47-47.991-63.903-137.88-46.213-215.04 14.993-44.76 36.725-101.51 78.966-124.2 12.411-7.2635 37.796-19.874 48.843-15.403 12.925 5.8454 14.182 10.733 16.357 10.735-3.6304-4.9289-3.8006-9.5449-8.6636-12.775-3.0355-2.0963-9.473-2.7572-14.469-2.7712z" fill="#fff" stroke-width="2.7416"/>
</mask>
<mask id="p" maskUnits="userSpaceOnUse">
<path class="WNHbHAPn_1" d="m465.93 256.26c0.0726 0.20722 0.32991 0.35001 0.39845 0.43666 0.22207 0.28951 0.24508 0.41772 0.3383 0.79167 0.18094 0.74763 0.15694 1.5059-0.14464 2.5545-0.30432 1.0489-0.79469 2.4732-1.513 3.773-0.72103 1.2995-1.6312 2.7117-2.7004 4.2119-1.072 1.5005-2.3002 3.0881-3.6545 4.7399-0.61138 0.74571-1.3297 1.5408-1.9904 2.3084-5.845 20.951-10.697 41.132-18.76 60.202-2.1275 4.9348-1.9328 7.0596 0.57847 8.8004 0.92665 0.65523 1.5545 1.0226 2.1412 1.2584 0.15901 8e-3 0.32076 5e-3 0.52638-0.18094 0.27142-0.24949 0.57847-0.65798 0.91569-1.2063 0.67717-1.0939 1.4804-2.7416 2.355-4.7621 1.7519-4.0438 3.8053-9.5763 5.7628-15.161 3.2433-9.2556 5.2501-15.734 6.174-18.673 0.11789-0.37559 0.18917-0.75393 0.31254-1.1186 3.3036-9.6147 6.4646-19.904 9.3762-28.825 2.8019-8.5098 2.8654-16.917 0.64475-18.755-0.40265-0.23241-0.47579-0.2882-0.52216-0.30569z" fill="#fff" stroke-width="2.7416"/>
</mask>
<mask id="a" maskUnits="userSpaceOnUse">
<path class="WNHbHAPn_2" d="m482.67 301.72c-2.6648 0.43317-9.8806 3.6572-15.512 6.7114-0.19465 0.1124-0.18643 0.10143-0.40301 0.23029-0.29884 0.16449-0.49623 0.30431-0.78409 0.46881-1.1432 0.72925-2.4537 1.6148-3.8985 2.7114-1.5079 1.1432-3.1418 2.4894-4.8169 4.0466-1.6724 1.56-3.7697 3.5229-5.442 5.516-0.69636 0.8307-1.3269 1.867-2.0041 2.7772-5e-3 0.0192-5e-3 0.0192-0.0137 0.0384-1.9547 5.5846-4.2686 11.005-6.0205 15.046-0.8773 2.0233-1.294 3.479-1.9712 4.5729-0.33722 0.54831-0.64427 0.95681-0.91569 1.2036-0.20561 0.18917-0.36737 0.19191-0.52638 0.18368 2.1055 0.84715 3.2159-1.0528 8.9622-8.0109 6.7552-10.328 16.362-15.432 24.548-23.018 1.9328-1.7409 3.5778-2.4181 5.5106-2.2234 3.0925 0.28786 3.0925 0.28786 6.6702 13.634 2.0041 7.4187 16.441 8.6168 22.382 8.0575-3.0843-6.6785-4.052-5.4557-9.8094-7.383-9.1898-2.1823-7.2323-25.17-15.956-24.562z" fill="#fff" stroke-width="2.7416"/>
</mask>
<mask id="o" maskUnits="userSpaceOnUse">
<path class="WNHbHAPn_3" d="m550.19 283.01c-0.50719-1.3516-8.0493-3.2707-12.282-3.0733-23.015 2.0315-32.419 25.738-36.605 39.358-2.3934 10.21 1.7217 13.894 7.1391 14.369 22.856 0.43591 40.608-12.836 44.331-37.719 0.59218-3.6764 0.93487-5.3762-1.0363-7.405-0.91294-0.64975-5.6312-0.26045-6.0808 0.27964-0.15627 0.33447-0.18369 3.2159-0.244 4.1233-1.9959 21.483-14.311 28.921-31.259 33.518-3.7587 0.34817-4.8224 1.1295-5.7107-1.889-0.30158-2.7937 4.1699-19.435 12.524-28.356 5.6778-5.6367 12.153-10.045 18.267-10.497 3.3694-0.29335 7.8272-0.4222 11.339 0.50719 0.76764 0.19465-0.0356-1.9026-0.38108-3.2159z" fill="#fff" stroke-width="2.7416"/>
</mask>
<mask id="n" maskUnits="userSpaceOnUse">
<path class="WNHbHAPn_4" d="m552.66 314.28c-0.096 1.8369-0.16176 3.5778-0.34544 5.5846-0.1453 1.5956-0.32351 3.1802-0.54283 4.6442-0.21933 1.4667-0.0932 2.6018-0.39753 3.723-0.30432 1.1213-0.65524 2.0178-1.061 2.5826-0.0548 0.0768-0.11789 0.0932-0.17546 0.15901 0.41946-0.13707 0.83618-0.40027 1.22-0.88004 4.6004-4.2111 6.2974-18.218 17.291-24.068 13.861-7.3748 30.349 6.9252 35.923 2.6237l-3.3475-3.2323c-1.4284-1.2913-5.135-5.22-9.8285-6.991-7.3529-2.7745-17.132-4.7073-24.375-1.3132-10.204 4.7813-13.524 13.957-14.36 17.168z" fill="#fff" stroke-width="2.7416"/>
</mask>
<mask id="m" maskUnits="userSpaceOnUse">
<path class="WNHbHAPn_5" d="m623.62 215.04c-1.8369 1.0637-5.7984 4.4485-8.699 7.3502-4.2467 3.8851-9.8861 9.2654-14.303 9.2852-9.7545-1.368-23.882-15.513-30.448-8.3177-12.85 15.368 2.917 44.393 10.051 58.514 9.4886 15.172 8.9375 16.756 20.008 26.791 11.789 3.9451-0.15352-14.33-10.536-28.822-9.0856-18.376-13.047-29.692-14.98-42.943-0.58121-4.0619 1.0637-7.1558 3.8656-7.1558 0.77312 0 4.9294 2.4167 9.2775 5.3184 25.771 13.114 30.338-14.437 54.782-20.093 3.9643-0.81452 8.4303-0.43344 11.175 2.2741 3.7697 3.7718-7.224 23.465-12.831 33.04-7.1199 15.101-15.271 26.518-23.451 39.302-1.4476 2.6127-4.3481 6.015-4.6058 8.9978-0.42768 4.9239-1.4722 4.9869 3.3886 1.5161 18.273-17.864 35.547-43.126 46.431-76.039 5.6696-21.656-23.874-18.122-39.125-9.0184z" fill="#fff" stroke-width="2.7416"/>
</mask>
<mask id="l" maskUnits="userSpaceOnUse">
<path class="WNHbHAPn_6" d="m551.09 289.25c-0.56202 0.0987-1.0199 0.77038-1.0582 2.1686-1.7738 19.769-4.4276 19.46-2.4537 37.864 0.38382 1.3297 1.4859 2.0452 2.599 1.6833 0.0548-0.0631 0.12063-0.0822 0.17546-0.15901 0.40301-0.56203 0.75667-1.4585 1.061-2.5798 0.30431-1.1213 0.56202-2.4674 0.78135-3.9314 0.70184-3.1857 0.49348-7.0047 0.51541-9.4228 0.29883-6.163 0.5538-17.678 0.54009-22.103-5e-3 -2.2673-1.2227-3.6874-2.1604-3.5202z" fill="#fff" stroke-width="2.7416"/>
</mask>
<mask id="k" maskUnits="userSpaceOnUse">
<path class="WNHbHAPn_7" d="m167.59 82.52c-17.219 0.18725-26.6 5.6326-41.465 13.83-30.801 22.231-57.57 52.007-72.202 84.24-2.803 6.4803-1.9331 8.608 3.4796 8.608h4.2527l-0.67662-4.6426c-0.48306-3.9654-0.0965-5.416 3.1898-11.799 14.855-34.209 53.358-63.862 70.141-74.681 16.383-12.057 37.975-15.105 52.515-7.6246 4.9296 2.5146 15.658 13.54 17.785 18.473 7.0974 10.159 11.947 37.595 9.9977 59.701-4.0551 45.984-27.115 96.65-48.08 121.64-4.7426 6.3029-22.365 24.43-18.677 21.371 11.025-1.4777 17.151-3.6189 19.064-6.5716 19.484-32.68 42.308-66.677 49.294-99.909 4.4589-19.36 5.777-37.654 5.4127-49.809-0.57984-23.212-1.7398-29.402-8.1192-43.522-10.554-19.812-24.013-29.663-45.911-29.305z" fill="#fff" stroke-width="2.7416"/>
</mask>
<mask id="j" maskUnits="userSpaceOnUse">
<path class="WNHbHAPn_8" d="m321.18 84.007 0.19191 14.507c0.7649 35.929-19.528 74.555-40.597 100.78-19.532 19.737-35.275 43.428-58.571 56.289-1.7513 0.89704-3.4127 1.18-4.9343 1.1221l-5.3644 4.9686c9.5196 4.5316 18.739-2.1749 25.57-7.1547 29.308-25.033 19.476-17.676 42.239-44.781 14.725-19.254 29.546-41.154 39.435-63.059 6.7909-15.196 8.2247-30.223 8.6688-49.695 0.47155-4.2793-3.0349-11.657-6.6373-12.976z" fill="#fff" stroke-width="2.7416"/>
</mask>
<mask id="i" maskUnits="userSpaceOnUse">
<path class="WNHbHAPn_9" d="m252.27 208.26c-8.0142 1.3436-14.288 5.1835-21.818 9.9667-18.298 11.624-34.66 29.99-24.5 39.135 1.2233 1.2658 4.7309 3.5388 5.9522 4.3141l5.3647-4.9686c-4.171-1.4286-8.1715-6.9504-4.2333-12.861 7.0557-10.639 24.503-23.889 37.455-29.498 2.5069-0.92967 7.0763 0.25825 8.2458 3.862 2.3325 7.1865 1.7776 19.885 5.4823 28.229 4.1532 9.3542 11.865 6.985 12.567 6.9101 0.92939-0.0995 6.6648-1.7209 8.2055-2.4518l-3.427-5.3864c-17.533 6.4605-12.514-16.493-16.835-28.937-1.0958-3.0078-2.3635-4.9274-4.2023-6.1529-3.2016-2.1343-6.0984-2.5225-8.2557-2.1606z" fill="#fff" stroke-width="2.7416"/>
</mask>
<mask id="h" maskUnits="userSpaceOnUse">
<path class="WNHbHAPn_10" d="m281.56 245.51 3.427 5.3864c20.033-10.103 58.936-39.32 52.208-60.221-1.2173-2.9516-4.1014-4.2511-5.6778-4.4361-1.6998-0.14777-3.3467 0.53458-5.8305 1.2282l1.4366 6.4888c14.152-4.4345-2.1694 19.226-7.022 24.506-11.016 11.492-28.882 22-38.541 27.049z" fill="#fff" stroke-width="2.7416"/>
</mask>
<mask id="g" maskUnits="userSpaceOnUse">
<path class="WNHbHAPn_11" d="m300.45 246.36 5.3159-4.5521c-1.1679-2.3479-7.7861-10.66-6.6593-18.725 3.0459-14.409 15.123-24.382 28.131-29.163l-1.4366-6.4888c-4.2056 1.4555-8.0273 3.4294-10.802 5.0916-16.685 9.4225-22.029 19.822-22.152 34.528 0.074 8.821 5.7463 17.216 7.6024 19.308z" fill="#fff" stroke-width="2.7416"/>
</mask>
<mask id="f" maskUnits="userSpaceOnUse">
<path class="WNHbHAPn_12" d="m366.78 214.72c1.4366-1.7562 2.8951-3.6219 4.2906-5.541 1.3982-1.9191 2.7333-3.8925 3.9314-5.864 0.51267-0.84468 0.86908-1.6691 1.3242-2.5091 0.24674-0.70157 0.47429-1.6951 0.71829-2.1902 2.7059-5.3195-0.95955-6.9918-2.514-4.8367-11.482 12.513-22.906 30.099-38.662 42.653-6.9005 4.4372-23.739 13.625-30.133 5.3156l-5.3049 4.5916c3.0075 3.3466 7.3556 5.0889 12.079 5.2463 19.868-1.6263 30.141-12.347 38.727-20.86 5.305-5.1394 11.369-10.923 15.542-16.005z" fill="#fff" stroke-width="2.7416"/>
</mask>
<mask id="e" maskUnits="userSpaceOnUse">
<path class="WNHbHAPn_13" d="m465.43 146.58c-0.0987-0.13845-0.26319-0.14284-0.50719 0.0225-7.2981 6.043-16.998 17.517-22.437 23.961-13.724 16.442-44.751 46.907-53.159 52.227-5.4146 3.385-7.3474 3.5791-11.504 0.96777-5.5983-3.8061-3.5991-16.968-1.4141-23.171-0.4551 0.84002-0.81151 1.6644-1.3242 2.5091-1.1981 1.9717-2.5332 3.9448-3.9314 5.8639-1.1953 1.6414-2.4373 3.2109-3.6682 4.7391 0.0576 1.6559 0.11457 3.451 0.40792 4.8114 0.34544 1.5915 0.82521 2.9878 1.3708 4.202 0.54283 1.2142 1.1542 2.2462 1.7656 3.1125 0.5209 0.74215 1.0281 1.3036 1.5051 1.8108 6.9225 4.2711 12.173 4.7136 22.741-8e-3 7.3968-3.8848 54.985-46.24 69.318-75.83 0.0411-0.0875 0.0548-0.15627 0.096-0.24236 0.61959-2.3547 1.0966-4.4701 0.74022-4.9757z" fill="#fff" stroke-width="2.7416"/>
</mask>
<mask id="d" maskUnits="userSpaceOnUse">
<path class="WNHbHAPn_14" d="m464.68 151.56c-0.0384 0.0861-0.0521 0.15489-0.0932 0.24235-0.92391 1.9306-2.2728 4.1277-3.9067 6.4759-1.6312 2.3482-3.5476 4.8466-5.6065 7.3811-1.4284 1.7579-2.9691 3.5139-4.488 5.2677-0.90472 2.2626-1.8286 4.488-2.6895 6.7988-2.1658 5.8047-3.8546 10.97-5.4941 15.931-30.196 95.632-50.831 175.88-83.626 263.48-5.5215 15.005-13.28 36.636-18.969 48.537-0.1124 0.23578-0.32899 0.49623-0.47429 0.74022-2.4976 6.6346-4.9677 13.236-7.9917 20.998-6.9142 17.705-13.379 36.647-21.763 52.786l6.4427 1.5079c7.6846-17.132 13.609-30.36 18.977-46.371 2.2124-4.488 3.9534-8.5866 5.7573-12.661 27.816-64.962 52.564-138.76 70.642-196.47 14.955-60.671 37.984-117.15 51.862-169.18 0.15079-0.92528 0.85263-3.3121 1.4201-5.4686z" fill="#fff" stroke-width="2.7416"/>
</mask>
<mask id="c" maskUnits="userSpaceOnUse">
<path class="WNHbHAPn_15" d="m412.29 467.44c3.5476-3.3475 6.736-15.183 4.9705-13.066-2.7937 4.8663-91.56 63.753-102.08 72.983-2.61 2.2262-7.4406 6.577-10.728 9.6723-3.1884 2.9993-8.795 8.0273-12.469 11.219-17.346 13.779-37.234 36.578-45.044 60.068-6.8811 20.696-7.3159 38.544 5.4637 51.399 1.2567 0.86908 4.2533 1.4503 7.5396 1.4503 5.0261 0 5.7025-0.2906 9.4719-4.063 14.363-20.049 37.349-54.982 46.607-75.393l-6.4454-1.5079c-11.183 21.425-24.699 41.039-37.068 61.137-3.7697 6.2864-10.633 11.608-13.629 10.64-7.5177-4.1178-7.0009-22.544-7.0069-26.84 5.0278-31.029 21.608-48.578 40.402-67.41 12.778-12.691 20.216-19.646 24.669-22.552z" fill="#fff" stroke-width="2.7416"/>
</mask>
<mask id="b" maskUnits="userSpaceOnUse">
<path class="WNHbHAPn_16" d="m528.15 426.27c-1.6038 1.3955-4.8526 5.4694-7.1473 8.869-3.4324 4.6223-3.7395 7.9423-8.0712 8.8004-9.8368 0.50993-35.1-15.663-40.183-7.3502-9.7024 17.527 11.282 43.032 20.962 55.542 12.192 13.096 29.924 27.534 33.151 22.171 0 0-19.479-17.393-31.276-32.433-10.001-12.754-14.264-23.334-15.811-32.85-1.3379-3.8766-0.31254-7.2268 2.44-7.7586 12.326 4.4249 26.922 15.972 35.177 12.751 10.048-4.7265 14.958-24.995 29.417-31.424 3.7368-1.5517 8.1946-2.0233 11.402 0.11241 4.4167 2.9883-2.6456 24.411-6.3358 34.876-4.1261 16.181-13.527 24.822-19.136 38.93-0.92391 2.8375-3.1281 6.7306-2.8183 9.7052 0.51542 4.9184-0.49622 5.1761 3.6161 0.84714 14.552-21.009 30.289-44.978 34.736-79.36 1.4612-22.338-26.876-13.261-40.123-1.4284z" fill="#fff" stroke-width="2.7416"/>
</mask>
</defs>
<path class="heart_0" d="m526 516.62-33.25-29.875-16.125-26.125-3-11.375s-0.875-17.875 14.375-10.5 25.641 19.924 38.5 0c11.375-17.625 23.25-20.25 23.25-20.25s16.375-5.625 13.875 11-12.625 43.75-12.625 43.75l-22.25 37.25" fill="none" mask="url(#b)" stroke="#000" stroke-width="13.8"/>
<path class="y_2" d="m312.88 579.75-14 25.75-15.75 25.375s-9.25 14.625-10.5 15.375-17 26.125-25.375-1.375 17-62.125 17-62.125 32.875-35.875 38.125-39 50.75-38.75 50.75-38.75l72.125-50.5" fill="none" mask="url(#c)" stroke="#000" stroke-width="11.6"/>
<path class="y_1" d="m460.86 146.19-33.411 109.96-29.168 99.172-17.854 52.149-40.743 108.28-27.312 66.38" fill="none" mask="url(#d)" stroke="#000" stroke-width="13.3"/>
<path class="y_0" d="m372.73 199.32-1.8562 15.733 3.0052 10.253s4.6846 3.0936 5.922 3.0936 10.783-1.8562 10.783-1.8562l14.584-12.021 63.109-67.882" fill="none" mask="url(#e)" stroke="#000" stroke-width="12.7"/>
<path class="e_2" d="m301.85 243.51s2.2981 3.2704 6.5407 4.2426 11.225 2.2097 20.418-3.3588 15.733-12.728 20.683-16.705c4.9497-3.9775 28.461-34.648 28.461-34.648" fill="none" mask="url(#f)" stroke="#000" stroke-width="11"/>
<path class="e_1" d="m327.75 190.56s-17.25 7.6875-20.938 12.062-10.938 11.75-11.375 24c-0.26591 7.4456 8.3125 18.312 8.3125 18.312" fill="none" mask="url(#g)" stroke="#000" stroke-width="8.9"/>
<path class="e_0" d="m282.93 248.55s31.113-20.241 31.643-21.39 12.993-12.905 12.993-12.905l6.0988-11.402s5.8238-16.893-7.8684-11.937" fill="none" mask="url(#h)" stroke="#000" stroke-width="8.2"/>
<path class="k_2" d="m218.38 260.12s-23.25-8.75-3.875-26.25 32-21.5 32-21.5 14.375-4.875 15.25 6.5 5.375 26.375 5.375 26.375 4 8.25 14 3.875 2.875-1.25 2.875-1.25" fill="none" mask="url(#i)" stroke="#000" stroke-width="10.3"/>
<path class="k_1" d="m323.75 83.25s2.75 31.5-4.25 51.5-21.75 47-30.5 58.5-43 51.25-51.75 56.25-12.737 12.235-24.987 8.7348" fill="none" mask="url(#j)" stroke="#000" stroke-width="10.6"/>
<path class="k_0" d="m55.125 190.62c0.375-1.25 4.875-15.625 4.875-15.625s17.875-29.625 18.75-30.5 17.875-19.375 17.875-19.375l32.5-27.375s51.625-34.25 76.125 6 7 96.25 7 96.25-13.25 51-35 81.5-27 34.75-27 34.75" fill="none" mask="url(#k)" stroke="#000" stroke-width="13.9"/>
<path class="a_2" d="m551.73 288.54-2.6647 43.18" fill="none" mask="url(#l)" stroke="#000" stroke-width="7.7"/>
<path class="heart_1" d="m604.71 309.36-21.709-30.484s-9.625-22.125-10.5-25.25-3.5-16.125-3.5-18.375 3-13.75 16.625-7.125 12.625 12 31.875-3.375 26.375-14.875 28.5-14 18.375 1.625 12.25 14.375-21.875 42.875-21.875 42.875l-25.375 35" fill="none" mask="url(#m)" stroke="#000" stroke-width="12.3"/>
<path class="a_1" d="m549.75 332.25s3.8125-19.312 7.3125-21.562 9.4757-15.129 27.562-9.1875c12.79 4.2018 20.375 4 20.375 4" fill="none" mask="url(#n)" stroke="#000" stroke-width="11.9"/>
<path class="a_0" d="m552.37 283.45s-19.374-3.4488-30.124 5.3012-17.5 32.5-17.5 32.5-0.25 13 10.25 8.75 15.25-3.75 19.5-8 11.25-15.5 11.25-15.5l4.1875-18.5" fill="none" mask="url(#o)" stroke="#000" stroke-width="9.8"/>
<path class="h_1" d="m437.25 344.38s27.625-30.75 28.875-30.75 20.75-18.125 21.5 1.75c0.68276 18.093 7.2812 14.969 21.75 15.469" fill="none" mask="url(#a)" stroke="#000" stroke-width="12.5"/>
<path class="h_0" d="m467.42 256.13s-0.062 0.19873-0.18004 0.57751c-4e-3 0.0142-9e-3 0.0287-0.0135 0.0434-0.58045 1.8621-2.4207 7.7657-4.8967 15.713-0.35386 1.1358-0.72071 2.3133-1.0987 3.5267-7.9433 25.498-20.816 66.852-21.719 69.946" fill="none" mask="url(#p)" stroke="#000" stroke-width="10.073"/>
<path class="c_0" d="m167.95 15.546s-7.774-23.462-48.75-9.0273c-40.976 14.435-78.692 71.242-86.608 95.92-7.9157 24.679-33.06 109.42-21.419 162.97 11.641 53.548 46.563 97.783 59.135 104.3s42.838 43.769 152.26 25.61c109.42-18.16 174.15-73.57 174.15-73.57l73.57-64.723" fill="none" mask="url(#q)" stroke="#000" stroke-width="24"/>
<style>.c_0 {stroke-dasharray: 924 926;stroke-dashoffset: 925;animation: WNHbHAPn_draw 925ms ease-in-out 0ms forwards;}.h_0 {stroke-dasharray: 95 97;stroke-dashoffset: 96;animation: WNHbHAPn_draw 96ms ease-in 925ms forwards;}.h_1 {stroke-dasharray: 105 107;stroke-dashoffset: 106;animation: WNHbHAPn_draw 106ms ease-out 1021ms forwards;}.a_0 {stroke-dasharray: 146 148;stroke-dashoffset: 147;animation: WNHbHAPn_draw 147ms ease-in 1127ms forwards;}.a_1 {stroke-dasharray: 76 78;stroke-dashoffset: 77;animation: WNHbHAPn_draw 77ms linear 1274ms forwards;}.a_2 {stroke-dasharray: 44 46;stroke-dashoffset: 45;animation: WNHbHAPn_draw 45ms ease-out 1351ms forwards;}.heart_1 {stroke-dasharray: 290 292;stroke-dashoffset: 291;animation: WNHbHAPn_draw 291ms ease-in-out 1396ms forwards;}.k_0 {stroke-dasharray: 440 442;stroke-dashoffset: 441;animation: WNHbHAPn_draw 441ms ease-in-out 1687ms forwards;}.k_1 {stroke-dasharray: 223 225;stroke-dashoffset: 224;animation: WNHbHAPn_draw 224ms ease-in 2128ms forwards;}.k_2 {stroke-dasharray: 145 147;stroke-dashoffset: 146;animation: WNHbHAPn_draw 146ms ease-out 2352ms forwards;}.e_0 {stroke-dasharray: 90 92;stroke-dashoffset: 91;animation: WNHbHAPn_draw 91ms ease-in 2498ms forwards;}.e_1 {stroke-dasharray: 72 74;stroke-dashoffset: 73;animation: WNHbHAPn_draw 73ms linear 2589ms forwards;}.e_2 {stroke-dasharray: 101 103;stroke-dashoffset: 102;animation: WNHbHAPn_draw 102ms ease-out 2662ms forwards;}.y_0 {stroke-dasharray: 156 158;stroke-dashoffset: 157;animation: WNHbHAPn_draw 157ms ease-in-out 2764ms forwards;}.y_1 {stroke-dasharray: 461 463;stroke-dashoffset: 462;animation: WNHbHAPn_draw 462ms ease-in 2921ms forwards;}.y_2 {stroke-dasharray: 388 390;stroke-dashoffset: 389;animation: WNHbHAPn_draw 389ms ease-out 3383ms forwards;}.heart_0 {stroke-dasharray: 300 302;stroke-dashoffset: 301;animation: WNHbHAPn_draw 301ms linear 3772ms forwards;}@keyframes WNHbHAPn_draw {100% {stroke-dashoffset: 0;}}</style>
</svg>
