<?xml version="1.0" standalone="no"?>
<!DOCTYPE svg PUBLIC "-//W3C//DTD SVG 20010904//EN"
 "http://www.w3.org/TR/2001/REC-SVG-20010904/DTD/svg10.dtd">
<svg version="1.0" xmlns="http://www.w3.org/2000/svg"
 width="421.000000pt" height="375.000000pt" viewBox="0 0 421.000000 375.000000"
 preserveAspectRatio="xMidYMid meet">
<metadata>
Created by potrace 1.16, written by Peter Selinger 2001-2019
</metadata>
<g transform="translate(0.000000,375.000000) scale(0.100000,-0.100000)"
fill="#000000" stroke="none" opacity="0.05">
<path d="M2225 3441 c-85 -25 -108 -36 -171 -76 -65 -42 -146 -122 -180 -180
-13 -22 -39 -53 -59 -68 -102 -81 -220 -256 -245 -366 -45 -193 98 -377 328
-422 188 -36 370 47 428 196 29 76 27 264 -4 362 -12 40 -25 80 -28 90 -16 55
34 -55 58 -126 70 -206 46 -397 -62 -495 -85 -76 -196 -112 -329 -104 l-81 5
-10 -41 c-43 -169 -132 -287 -470 -626 -285 -286 -385 -467 -397 -717 -3 -62
-9 -113 -12 -113 -15 2 -85 101 -116 165 -47 95 -65 173 -66 281 0 172 50 294
173 416 46 46 78 86 78 98 0 22 -33 60 -53 60 -45 0 -190 -145 -249 -250 -62
-111 -89 -217 -89 -356 0 -366 233 -676 573 -763 155 -40 220 -43 708 -36 501
8 513 9 526 61 16 62 -31 156 -102 202 -47 32 -141 58 -175 49 -12 -3 4 20 43
62 137 145 171 307 98 458 -99 202 -385 295 -641 210 -41 -14 -75 -24 -77 -23
-6 6 118 57 179 73 96 25 255 23 339 -6 35 -13 83 -34 106 -47 59 -35 131
-115 162 -182 24 -51 27 -69 27 -162 -1 -87 -5 -114 -23 -155 l-22 -50 24 -80
c67 -221 151 -365 232 -395 36 -14 417 -13 448 1 66 31 54 140 -25 218 -46 47
-83 62 -184 77 -82 12 -93 16 -122 48 -41 44 -55 99 -54 212 0 105 15 184 71
379 104 362 95 511 -49 822 -52 113 -63 162 -43 199 15 28 39 37 207 79 253
63 400 158 504 326 26 42 58 109 71 148 14 39 30 71 36 71 22 0 71 58 78 90
13 66 -46 140 -111 140 -36 0 -87 -22 -100 -43 -6 -10 -43 -12 -173 -7 -196 7
-213 13 -354 127 -100 81 -239 155 -324 172 -80 17 -227 12 -297 -8z m503
-237 c25 -17 52 -64 52 -90 0 -13 -5 -11 -25 10 -30 33 -68 34 -100 1 -32 -31
-33 -80 -3 -112 l21 -23 -22 0 c-13 0 -38 15 -57 34 -29 29 -34 41 -34 81 0
40 5 52 34 81 27 27 42 34 73 34 21 0 49 -7 61 -16z"/>
</g>
</svg>
