<?xml version="1.0" encoding="UTF-8" standalone="no"?>
<svg
   xmlns:dc="http://purl.org/dc/elements/1.1/"
   xmlns:cc="http://creativecommons.org/ns#"
   xmlns:rdf="http://www.w3.org/1999/02/22-rdf-syntax-ns#"
   xmlns:svg="http://www.w3.org/2000/svg"
   xmlns="http://www.w3.org/2000/svg"
   xmlns:sodipodi="http://sodipodi.sourceforge.net/DTD/sodipodi-0.dtd"
   xmlns:inkscape="http://www.inkscape.org/namespaces/inkscape"
   width="279.26868mm"
   height="260.89545mm"
   viewBox="0 0 279.26868 260.89545"
   version="1.1"
   id="svg8"
   inkscape:version="1.0.2-2 (e86c870879, 2021-01-15)"
   sodipodi:docname="signNew.svg">
  <defs
     id="defs2" />
  <sodipodi:namedview
     id="base"
     pagecolor="#ffffff"
     bordercolor="#666666"
     borderopacity="1.0"
     inkscape:pageopacity="0.0"
     inkscape:pageshadow="2"
     inkscape:zoom="0.49497475"
     inkscape:cx="1462.733"
     inkscape:cy="-104.93576"
     inkscape:document-units="mm"
     inkscape:current-layer="g917"
     inkscape:document-rotation="0"
     showgrid="false"
     inkscape:window-width="2560"
     inkscape:window-height="1377"
     inkscape:window-x="-8"
     inkscape:window-y="-8"
     inkscape:window-maximized="1"
     fit-margin-top="0"
     fit-margin-left="0"
     fit-margin-right="0"
     fit-margin-bottom="0" />
  <metadata
     id="metadata5">
    <rdf:RDF>
      <cc:Work
         rdf:about="">
        <dc:format>image/svg+xml</dc:format>
        <dc:type
           rdf:resource="http://purl.org/dc/dcmitype/StillImage" />
        <dc:title></dc:title>
      </cc:Work>
    </rdf:RDF>
  </metadata>
  <g
     inkscape:label="Layer 1"
     inkscape:groupmode="layer"
     id="layer1"
     transform="translate(660.61799,120.43141)">
    <g
       transform="matrix(0.03527778,0,0,-0.03527778,-188.95911,326.61532)"
       fill="#000000"
       stroke="none"
       id="g917">
      <path
         d="m -10026.427,6710.9998 c -27,-23 -77,-68 -111,-100 -33,-31 -91,-83 -129,-116 -318.366,-260.3908 -593.201,-883.4277 -342.536,-1171.25 401.916,-328.979 633.5357,1164.25 859.5354,1502.25 27.3461,44.5932 61.963,83.7148 91,115 183,194 561.5178,580.5 556.5178,621.5 -4,28 -30,25 -45,-6 -18,-37 -380.5178,-389.5 -402.5178,-381.5 477.6313,1021.5976 612.8699,2141.9923 988,3182.0002 0,4 8,26 19,48 22,47 41,100 48,135 3,14 12,40 20,59 26,58 -17,68 -50,12 -9,-16 -44,-57 -78,-92 -34,-35 -82,-89 -107,-119 -142,-170 -418,-484.9999 -505,-539.9999 -56,-35 -121,-67 -164,-40 -52.392,23.5888 -123,62.1042 -123,115 -11.1611,66.9139 162.3135,253.5809 89,224.9999 -118.8009,-129.38 -237.002,-311.2109 -399.9997,-440.9999 -52,-39 -186,-99 -221.9997,-99 -42,0 -57,15 -57,60 0,38 36,83 109.9997,139 103,78 190,209.9999 190,286.9999 -4.631,41.542 -35.985,128.479 -66,132 -23,2 -38,-4 -60,-26 -90.9797,-98.456 -200.2027,-345.1819 -219.9997,-455.9999 -32.856,-41.018 -261.993,-138.541 -318,-123 -23,9 -66,99 -41,189 11,40 35,84 35,98 0,14 32,48 53,75 21,27.9999 73,81.9999 98,119.9999 25,39 41,79 54,90 103.689,138.481 144.33,248.202 211,397 19,39 34,78 34,87 64.3007,205.417 127.9617,353.445 68.1257,589 -21.452,1.86 -19.619,-96.019 -19.126,-133 -25.593,-395.603 -177.2457,-757.158 -419.9997,-1042 -44,-52 -67,-60 -184,-68 -231.317,-25.328 -301.334,-144.3439 -451.25,-257.7149 -33.92,-30.701 -154.494,-223.721 -82.715,-288.285 145.605,-101.512 194.903,-11.683 269.965,43 70.859,33.97 223.006,258.063 283.964,260.321 0.892,-85.731 -22.433,-118.915 70.036,-199.321 56.109,-21.1688 165.045,2.7668 221,46 34,32 99,43 120,7 18,-31 88,-81 114,-81 169.6891,35.8028 300.345,176.0873 352.9994,228 91,89 94,132 123,132 221.7133,-294.8663 385.1423,-63.497 580,115.9999 10,9 26,25 35,37 10,11 23,24 31,28 7,5 40,40 72,77 49,56 256.8571,328.161 277.8571,326.161 -598.2273,-1278.3531 -499.8984,-2934.7088 -1476.8565,-3798.1612 z M -9857.4273,10118 c 24.415,-91.883 -153.8547,-327.2909 -219.9997,-317.9999 1.377,71.9101 106.6214,267.9519 148.9997,317.9999 11,12 30,22 43,22 14,0 24,-8 28,-22 z m -655.9997,-129.9999 c 25,-25 -19,-85 -100,-169 -46,-48 -99,-106 -120,-131 -31,-38 -153.179,-150.75 -220.179,-185.75 -84,-43 -157.821,49.75 -97.821,139.75 73,110 184.75,244.3214 318.75,302.3214 58,25 202.25,60.6785 219.25,43.6786 z m 644.9997,-3265.0003 c -176.1407,-412.4692 -459.5417,-1531.5249 -701.2587,-1375.5761 -154.587,146.0565 -51.986,547.8136 18.55,671.4435 94.532,171.4416 169.253,259.5099 287.709,378.1326 266.9997,265 388.9997,415 394.9997,326 z"
         id="path909"
         sodipodi:nodetypes="ccccccccccccccsccccccsscccccccsccccccccccccccccccccccccccccscscccccsccccc" />
      <path
         d="m -11742.677,11353.285 c -36,-19 -82,-45 -102,-56 -153.032,-111.479 -373.929,-292.946 -463,-420 -16,-25 -41,-58 -55,-75 -153.875,-197.946 -227.374,-418.68 -153.018,-423.482 15.764,94.732 9.642,89.447 30.018,128.482 21,42 47,89 58,105 11,17 25,38 30,47 21,34 108,163 114,168 4,3 30,34 58,70 28,36 63,76 78,90 171.985,183.483 382.301,364.43 625,402 177,25 204,22 306,-31 506.477,-335.801 312.698,-1007.967 160,-1445.9999 -14,-44 -40,-104 -56,-134 -159.359,-315.6676 -367.514,-622.5858 -565,-885 109.477,20.6198 208.177,186.4553 290,304 43.128,62.4078 69.302,121.1013 112,181 87.669,147.5117 155.015,297.9067 228,429 122.008,257.7699 197.76,590.3369 191,879.9999 -6,240 -18,304 -84,450 -93.532,164.814 -183.839,273.304 -372,294 -138.366,18.473 -315.143,-14.619 -430,-78 z"
         id="path911"
         sodipodi:nodetypes="cccccccccsccccccccccccc" />
      <path
         d="m -7885.7133,8018.714 c -16,-27 -26,-33 -54,-33 -28,0 -42,9 -80,51 -25,28 -46,58 -46,66 -27.6608,57.0893 -135.8376,170.5363 -198.5165,122.2848 -254.1771,-168.233 -159.8519,-600.2314 18.6688,-869.2848 298.0602,-337.8601 511.1625,-201.0307 719.8477,151 122.5751,195.4177 217.4048,363.387 295,555 23,56 20,190 -5,232 -32.4102,35.6754 -99.7083,83.1041 -149,81 -214.1986,-62.3341 -373.0192,-162.4028 -501,-356 z m 557,265 c 35,-31 37,-234 -8,-333 -9,-22 -20,-52 -23,-66 -294.4746,-445.6907 -473.7273,-1015.1765 -869,-432 -117.3002,167.2029 -180.5145,395.8177 -105,583 45,102 54,115 92,118 124.7676,-29.9515 151.3136,-174.2581 255,-217 42,-15 56,-16 85,-6 109.1644,94.7357 185.0566,187.5552 286,285 40,41 189,82 244,84 14,1 33,-6 43,-16 z"
         id="path913"
         sodipodi:nodetypes="cscccccccccccccccccccc" />
      <path
         id="path915"
         d="m -8975.4551,8947.5595 c 100.6606,117.5993 543.9631,562.3459 771.875,675.625 112.0001,80 77,-10 77,-35 -30.5956,-198.592 -199.4395,-368.9662 -203.3571,-567.4822 -3.3509,-95.397 39.3571,-152.5178 115.3571,-60.5178 47.2156,59.834 233.497,173.165 296.0001,171 137.0027,-437.8332 594.7277,-38.4227 1015,141 44,16 50,17 72,2 36,-23 51,-84 35,-138 -17.8735,-405.614 86.8352,-26.624 170,58 40,41 87,74 147,104 82,42 108.1523,71.5165 182.1523,71.5165 214.2308,-115.227 214.7008,-245.7425 404.8476,46.4835 44.2109,96.994 121.7118,172.241 171,251 67.9902,119.414 200.5261,280.272 245,401.0015 17,46 23,82 23,153 0,153 -26,182 -157,170 -82.0863,-12.284 -207.5968,-54.445 -266,-107 -14,-12 -41,-32 -60,-44 -19,-11 -60,-46 -90,-76 -113.2909,-112.353 -177.1982,-135.799 -301.9999,-13 -173.9935,72.35 -223.6071,-53.174 -203,-173.0005 43.8568,-138.689 82.1019,-306.064 146,-429.001 53,-98 50,-125 -14,-141 -23,-6 -49,-14 -57,-19 -24,-13 -51,-26 -110,-55 -30,-15 -87,-66 -107,-78 l -38,-21 -41,33 c -37,29 -36,64 -100,68 -150.4993,-80.8272 -228.7729,-108.4061 -265.661,-80.8012 -47.8826,35.8325 -36.3073,144.0979 -128.339,137.8012 -182.6083,-9.6496 -366.4218,-190.8665 -421,-351 -59.4256,-127.9099 -117.8068,-34.7843 -154,41 -14,28 -25,63 -25,78 0,15 -9,36 -20,47 -17,17 -28,19 -63,14 -37,-6 -249,-199 -302.0001,-235 -26,-19 -68.0179,-60.8571 -71,1 10.5002,187.5748 150.3745,357.6378 201.0001,506 29,88 33,175 10,194 -18,15 -59,78 -196.0001,-55 -245.2228,-221.131 -238.9696,-224.9795 -369,-340 -347.6408,-331.5779 -739.5017,-581.8562 -318.875,-345.625 z m 3418.875,1370.6265 c 39,-39 77,-124 19,-223 -10,-18 -19,-38.001 -19,-44.001 -158.6815,-229.3346 -326.874,-485.9279 -447,-711.0005 -110.1401,-97.5815 -260.8609,90.2944 -313.9999,200 -94,190 -135,367 -155,504.0015 -6,42 11,74 40,74 8,0 51,-25 96,-55 76,-51.001 117,-85.0005 170,-85.0005 84.33,1.147 147.2455,69.5025 195.9999,118.0005 119,117 189,167 309,219 63,28 80,28 105,3 z M -7180.6993,9318.1845 c 3.8868,-173.9893 -288.4456,-296.7969 -440.8807,-316 -74.5641,137.2599 442.8807,421 440.8807,316 z M -12749.663,12206.63 c -24,-32 -56,-68 -72,-81 -285.597,-375.64 -401.229,-702.398 -477,-1127 -9,-55 -14,-92 -41,-260 -43.856,-429.791 -50.361,-866.3405 52,-1277.0005 304.501,-1523.692 2112.04,-1204.6819 4072.3746,-629.5536 244.1524,74.857 281.6361,211.5529 215.6071,172.2679 -50.3542,-75.6058 25,24 0,0 -193.4072,-209.9754 -3064.1287,-1077.3423 -3856.9817,-246.7143 -56,62 -172,226 -172,242 0,4 -15,38 -34,78 -58.498,126.994 -110.53,289.241 -126,371 -15,79 -38,186 -50,235 -6,25 -15,83 -20,130 -5,47 -13,117 -19,155 -5,39.0005 -10,131.0005 -12,205.0005 -3,132 9,438 17,452 2,4 13,78 24,165 11,87 24,178 29,203 5,25 14,79 20,120 7,41 19,102 27,135 113.263,491.901 451.772,1025.039 866,1256 128.086,69.971 407.406,169.304 529,116 172.982,-57.232 229,-98 229,-78 0,8 -115,91 -126,91 -368.074,155.784 -887.379,-195.65 -1075,-427 z"
         sodipodi:nodetypes="cccccccccccccccsccccccccccccccscccssccccccccscccccsccccsccccccccccccscccscccssccccscc" />
    </g>
  </g>
</svg>
