<?xml version="1.0" encoding="UTF-8"?>
<svg class="" fill="none" style="" viewBox="0 0 280 261" xmlns="http://www.w3.org/2000/svg">
    <mask id="e" x="0" y="0" width="280" height="153" style="mask-type:alpha" maskUnits="userSpaceOnUse">
        <mask id="a" fill="white">
            <path class="ovCZOdhY_0" d="m 155.02 131.4 c 2.42 -1.86 19.19 -19.839 27.23 -23.835 c 3.951 -2.822 2.716 0.353 2.716 1.235 c -1.079 7.006 -7.036 13.016 -7.174 20.019 c -0.118 3.366 1.389 5.381 4.07 2.135 c 1.665 -2.11 8.237 -6.109 10.442 -6.032 c 4.833 15.446 20.981 1.355 35.807 -4.974 c 1.552 -0.565 1.764 -0.6 2.54 -0.071 c 1.27 0.811 1.383 2.912 1.235 4.868 c -0.631 14.31 3.063 0.94 5.997 -2.046 c 1.411 -1.446 3.069 -2.61 5.186 -3.669 c 2.892 -1.481 3.815 -2.523 6.426 -2.523 c 7.557 4.065 7.574 8.67 14.282 -1.639 c 1.559 -3.422 4.293 -6.077 6.032 -8.855 c 2.399 -4.213 7.074 -9.8874 8.643 -14.146 c 0.6 -1.6228 0.812 -2.8928 0.812 -5.3975 c 0 -5.3975 -0.918 -6.4206 -5.539 -5.9972 c -2.896 0.4333 -7.324 1.9207 -9.384 3.7747 c -0.494 0.4233 -1.446 1.1289 -2.117 1.5522 c -0.67 0.3881 -2.116 1.6228 -3.174 2.6811 c -6.68 6.6497 -3.923 3.6377 -10.654 0.4586 c -5.249 -2.1709 -7.889 1.8759 -7.162 6.1031 c 1.547 4.8926 2.897 10.798 5.151 15.134 c 1.869 3.457 1.721 4.299 -0.494 4.974 c -0.811 0.212 -1.729 0.494 -2.011 0.67 c -0.847 0.459 -1.799 0.917 -3.88 1.94 c -1.059 0.53 -2.901 2.279 -3.775 2.752 l -1.341 0.741 l -1.446 -1.164 c -1.305 -1.023 -1.698 -3.416 -3.528 -2.399 c -5.309 2.851 -8.071 3.824 -9.372 2.85 c -1.689 -1.264 -1.281 -5.083 -4.527 -4.861 c -6.442 0.34 -12.927 6.733 -14.852 12.383 c -2.097 4.512 -4.156 1.227 -5.433 -1.447 c -0.494 -0.988 -0.882 -2.222 -0.882 -2.752 c 0 -0.529 -0.318 -1.27 -0.706 -1.658 c -0.599 -0.599 -0.987 -0.67 -2.222 -0.493 c -1.305 0.211 -8.784 7.02 -10.654 8.29 c -0.917 0.67 -2.4 2.147 -2.505 -0.035 c 0.371 -6.618 5.305 -12.617 7.091 -17.851 c 1.023 -3.104 1.164 -6.174 0.353 -6.844 c -0.635 -0.529 -2.081 -2.752 -6.915 1.94 c -8.65 7.801 -8.43 7.937 -13.017 11.995 c -12.264 11.697 -14.911 12.774 -19.676 16.237 z m 120.61 -48.353 c 1.376 1.3758 2.211 4.189 0.67 7.8669 c -0.285 0.7601 -0.372 1.0211 -0.67 1.5523 c -5.598 8.0907 -11.453 20.0508 -15.769 25.083 c -3.644 3.4448 -9.203 -3.186 -11.077 -7.056 c -3.316 -6.703 -4.763 -12.947 -5.468 -17.78 c -0.212 -1.4817 0.388 -2.6106 1.411 -2.6106 c 0.282 0 1.799 0.882 3.386 1.9403 c 2.682 1.7992 4.128 2.9986 5.998 2.9986 c 2.975 -0.0405 5.194 -2.4519 6.914 -4.1628 c 4.198 -4.1275 6.668 -5.8914 10.901 -7.7258 c 2.222 -0.9878 2.822 -0.9878 3.704 -0.1058 z m -57.295 35.278 c 0.137 6.138 -10.176 10.47 -15.554 11.148 c -2.63 -4.843 15.624 -14.852 15.554 -11.148 z m -196.46 -101.9 c -0.926 1.032 -1.571 1.749 -2.54 2.8575 c -10.075 13.252 -14.154 24.779 -16.828 39.758 c -0.3175 1.9403 -0.4939 3.2455 -1.4464 9.1722 c -1.5471 15.162 -1.7766 30.563 1.8344 45.049 c 10.742 53.753 74.508 42.499 143.66 22.21 c 13.515 -5.0217 9.802 -7.3187 8.351 -6.078 c -6.823 7.408 -108.1 38.007 -136.07 8.704 c -1.9756 -2.187 -6.0678 -7.973 -6.0678 -8.537 c 0 -0.141 -0.5292 -1.341 -1.1995 -2.752 c -2.0636 -4.48 -3.8992 -10.204 -4.445 -13.088 c -0.5292 -2.787 -1.3406 -6.562 -1.7639 -8.29 c -0.2117 -0.882 -0.5292 -2.928 -0.7056 -4.586 c -0.1764 -1.6584 -0.4586 -4.1278 -0.6703 -5.4684 c -0.1764 -1.3758 -0.3528 -4.6214 -0.4233 -7.2319 c -0.1058 -4.6567 0.3175 -15.452 0.5997 -15.946 c 0.0706 -0.1411 0.4586 -2.7517 0.8467 -5.8208 c 0.3881 -3.0692 0.8467 -6.2795 1.0231 -7.1614 c 0.1764 -0.882 0.4939 -2.787 0.7056 -4.2334 c 0.247 -1.4463 0.6703 -3.5983 0.9525 -4.7625 c 3.9956 -17.353 15.938 -36.161 30.551 -44.309 c 4.5186 -2.4684 14.372 -5.9727 18.662 -4.0922 c 6.1024 2.019 8.0786 3.4572 8.0786 2.7517 c 0 -0.2822 -4.057 -3.2103 -4.445 -3.2103 c -12.985 -5.4957 -31.305 6.9021 -38.0678 14.3745 z"/>
        </mask>
        <path class="ovCZOdhY_1" d="m 155.02 131.4 c 2.42 -1.86 19.19 -19.839 27.23 -23.835 c 3.951 -2.822 2.716 0.353 2.716 1.235 c -1.079 7.006 -7.036 13.016 -7.174 20.019 c -0.118 3.366 1.389 5.381 4.07 2.135 c 1.665 -2.11 8.237 -6.109 10.442 -6.032 c 4.833 15.446 20.981 1.355 35.807 -4.974 c 1.552 -0.565 1.764 -0.6 2.54 -0.071 c 1.27 0.811 1.383 2.912 1.235 4.868 c -0.631 14.31 3.063 0.94 5.997 -2.046 c 1.411 -1.446 3.069 -2.61 5.186 -3.669 c 2.892 -1.481 3.815 -2.523 6.426 -2.523 c 7.557 4.065 7.574 8.67 14.282 -1.639 c 1.559 -3.422 4.293 -6.077 6.032 -8.855 c 2.399 -4.213 7.074 -9.8874 8.643 -14.146 c 0.6 -1.6228 0.812 -2.8928 0.812 -5.3975 c 0 -5.3975 -0.918 -6.4206 -5.539 -5.9972 c -2.896 0.4333 -7.324 1.9207 -9.384 3.7747 c -0.494 0.4233 -1.446 1.1289 -2.117 1.5522 c -0.67 0.3881 -2.116 1.6228 -3.174 2.6811 c -6.68 6.6497 -3.923 3.6377 -10.654 0.4586 c -5.249 -2.1709 -7.889 1.8759 -7.162 6.1031 c 1.547 4.8926 2.897 10.798 5.151 15.134 c 1.869 3.457 1.721 4.299 -0.494 4.974 c -0.811 0.212 -1.729 0.494 -2.011 0.67 c -0.847 0.459 -1.799 0.917 -3.88 1.94 c -1.059 0.53 -2.901 2.279 -3.775 2.752 l -1.341 0.741 l -1.446 -1.164 c -1.305 -1.023 -1.698 -3.416 -3.528 -2.399 c -5.309 2.851 -8.071 3.824 -9.372 2.85 c -1.689 -1.264 -1.281 -5.083 -4.527 -4.861 c -6.442 0.34 -12.927 6.733 -14.852 12.383 c -2.097 4.512 -4.156 1.227 -5.433 -1.447 c -0.494 -0.988 -0.882 -2.222 -0.882 -2.752 c 0 -0.529 -0.318 -1.27 -0.706 -1.658 c -0.599 -0.599 -0.987 -0.67 -2.222 -0.493 c -1.305 0.211 -8.784 7.02 -10.654 8.29 c -0.917 0.67 -2.4 2.147 -2.505 -0.035 c 0.371 -6.618 5.305 -12.617 7.091 -17.851 c 1.023 -3.104 1.164 -6.174 0.353 -6.844 c -0.635 -0.529 -2.081 -2.752 -6.915 1.94 c -8.65 7.801 -8.43 7.937 -13.017 11.995 c -12.264 11.697 -14.911 12.774 -19.676 16.237 z m 120.61 -48.353 c 1.376 1.3758 2.211 4.189 0.67 7.8669 c -0.285 0.7601 -0.372 1.0211 -0.67 1.5523 c -5.598 8.0907 -11.453 20.0508 -15.769 25.083 c -3.644 3.4448 -9.203 -3.186 -11.077 -7.056 c -3.316 -6.703 -4.763 -12.947 -5.468 -17.78 c -0.212 -1.4817 0.388 -2.6106 1.411 -2.6106 c 0.282 0 1.799 0.882 3.386 1.9403 c 2.682 1.7992 4.128 2.9986 5.998 2.9986 c 2.975 -0.0405 5.194 -2.4519 6.914 -4.1628 c 4.198 -4.1275 6.668 -5.8914 10.901 -7.7258 c 2.222 -0.9878 2.822 -0.9878 3.704 -0.1058 z m -57.295 35.278 c 0.137 6.138 -10.176 10.47 -15.554 11.148 c -2.63 -4.843 15.624 -14.852 15.554 -11.148 z m -196.46 -101.9 c -0.926 1.032 -1.571 1.749 -2.54 2.8575 c -10.075 13.252 -14.154 24.779 -16.828 39.758 c -0.3175 1.9403 -0.4939 3.2455 -1.4464 9.1722 c -1.5471 15.162 -1.7766 30.563 1.8344 45.049 c 10.742 53.753 74.508 42.499 143.66 22.21 c 13.515 -5.0217 9.802 -7.3187 8.351 -6.078 c -6.823 7.408 -108.1 38.007 -136.07 8.704 c -1.9756 -2.187 -6.0678 -7.973 -6.0678 -8.537 c 0 -0.141 -0.5292 -1.341 -1.1995 -2.752 c -2.0636 -4.48 -3.8992 -10.204 -4.445 -13.088 c -0.5292 -2.787 -1.3406 -6.562 -1.7639 -8.29 c -0.2117 -0.882 -0.5292 -2.928 -0.7056 -4.586 c -0.1764 -1.6584 -0.4586 -4.1278 -0.6703 -5.4684 c -0.1764 -1.3758 -0.3528 -4.6214 -0.4233 -7.2319 c -0.1058 -4.6567 0.3175 -15.452 0.5997 -15.946 c 0.0706 -0.1411 0.4586 -2.7517 0.8467 -5.8208 c 0.3881 -3.0692 0.8467 -6.2795 1.0231 -7.1614 c 0.1764 -0.882 0.4939 -2.787 0.7056 -4.2334 c 0.247 -1.4463 0.6703 -3.5983 0.9525 -4.7625 c 3.9956 -17.353 15.938 -36.161 30.551 -44.309 c 4.5186 -2.4684 14.372 -5.9727 18.662 -4.0922 c 6.1024 2.019 8.0786 3.4572 8.0786 2.7517 c 0 -0.2822 -4.057 -3.2103 -4.445 -3.2103 c -12.985 -5.4957 -31.305 6.9021 -38.0678 14.3745 z" fill="#000" mask="url(#a)" stroke="#000" stroke-width="2"/>
    </mask>
    <g mask="url(#e)">
        <g stroke="#000" stroke-width="5.5">
            <path class="ovCZOdhY_2" d="m64.5 4.5c-11.333-6.1667-38.1-7.8-54.5 35-16.4 42.8-5.9999 79.24 2 93 4.1667 7.167 20.5 21 52.5 19 40-2.5 76.83-15.492 82-17 12-3.5 27.146-22.192 29.5-23.5 4.5-2.5 9.5-10 9.5-3s-7 17-7 19-2.5 7.333 5 1.5c4.5-3.5 5.5-4.5 9.5-5.5 1.5 1 0.5 5.5 3.5 7 1.612 0.806 3.167 0.167 4 0 4.333-7.5 15-20 19-8"/>
            <path class="ovCZOdhY_3" d="m200 132c0.4 0 18.833-7.667 28-11.5 1.5-0.5 6-3 5 3.5-0.925 6.012-0.765 7.03 0.5 4.5 3-6 3.5-7 4.5-7.5 0.8-0.4 7.833-4.667 10.5-6"/>
            <path class="ovCZOdhY_4" d="m241.5 91c0-2 9.5 0 11.5 2 3.5 2.5 3 0 4-1s3.5-4 14.5-9c8.8-4 7.667 3.6667 6 8-3.833 6-12.3 19.5-15.5 25.5-4 7.5-10-1.5-12-2s-8.5-21.5-8.5-23.5z"/>
        </g>
    </g>
    <mask id="d" x="29" y="43" width="60" height="91" style="mask-type:alpha" maskUnits="userSpaceOnUse">
        <path class="ovCZOdhY_5" d="m 57.403 46.528 c -1.27 0.6702 -2.8927 1.5875 -3.5983 1.9755 c -5.8047 3.4965 -12.8047 10.4965 -16.334 14.817 c -0.5645 0.8819 -1.4464 2.0461 -1.9403 2.6458 c -5.4284 6.9831 -8.0213 14.77 -5.3981 14.94 c 0.5561 -3.3419 0.3401 -3.1555 1.0589 -4.5325 c 0.7409 -1.4817 1.6581 -3.1398 2.0462 -3.7042 c 0.388 -0.5997 0.8819 -1.3406 1.0583 -1.6581 c 0.7408 -1.1994 3.81 -5.7502 4.0217 -5.9266 c 0.1411 -0.1059 1.0583 -1.1995 2.0461 -2.4695 c 0.9877 -1.27 2.2225 -2.6811 2.7516 -3.175 c 6.0673 -6.4728 13.487 -12.856 22.049 -14.182 c 6.2442 -0.882 7.1967 -0.7761 10.795 1.0936 c 17.867 11.846 11.031 35.559 5.6445 51.012 c -0.4939 1.5523 -1.4111 3.6687 -1.9756 4.7277 c -5.6218 11.136 -12.965 21.963 -19.932 31.22 c 3.8621 -0.727 7.344 -6.577 10.23 -10.724 c 1.5215 -2.202 2.4449 -4.272 3.9512 -6.385 c 3.0927 -5.204 5.4685 -10.51 8.0433 -15.134 c 4.3042 -9.094 6.9765 -20.826 6.738 -31.045 c -0.2116 -8.4667 -0.635 -10.724 -2.9633 -15.875 c -3.2996 -5.8143 -6.4854 -9.6416 -13.123 -10.372 c -4.8813 -0.6517 -11.118 0.5157 -15.17 2.7517 z" fill="#000"/>
    </mask>
    <g mask="url(#d)">
        <path class="ovCZOdhY_6" d="M30 80.5C36.6667 63.3333 55.5 32.6 77.5 47C105 65 70 128 60 132.5" stroke="#000" stroke-width="4"/>
    </g>
    <mask id="c" x="79" y="49" width="94" height="212" style="mask-type:alpha" maskUnits="userSpaceOnUse">
        <path class="ovCZOdhY_7" d="m 117.95 210.3 c -0.953 0.811 -2.717 2.398 -3.916 3.527 c -1.164 1.094 -3.21 2.928 -4.551 4.093 c -11.231 9.186 -20.927 31.165 -12.084 41.319 c 12.028 11.512 22.35 -41.072 30.323 -52.996 c 0.964 -1.574 2.186 -2.954 3.21 -4.057 c 6.456 -6.844 19.809 -20.479 19.633 -21.925 c -0.141 -0.988 -1.059 -0.882 -1.588 0.211 c -0.635 1.306 -13.424 13.741 -14.2 13.459 c 16.85 -36.04 21.621 -75.565 34.855 -112.25 c 0 -0.1411 0.282 -0.9172 0.67 -1.6933 c 0.696 -1.6717 1.37 -3.5987 1.693 -4.7625 c 0.106 -0.4939 0.424 -1.4112 0.706 -2.0814 c 0.917 -2.0461 -0.6 -2.3989 -1.764 -0.4234 c -0.317 0.5645 -1.552 2.0109 -2.752 3.2456 c -1.199 1.2347 -2.892 3.1397 -3.774 4.198 c -5.01 5.9973 -14.746 17.11 -17.816 19.05 c -1.975 1.2351 -4.595 1.786 -5.785 1.4111 c -1.81 -0.6251 -3.81 -1.6251 -4.339 -4.057 c -0.471 -2.5681 4.806 -8.2891 3.139 -7.9375 c -4.191 4.5643 -8.361 10.979 -14.111 15.558 c -1.834 1.376 -6.561 3.493 -7.831 3.493 c -1.482 0 -2.011 -0.53 -2.011 -2.117 c 0 -1.341 1.27 -2.928 3.88 -4.904 c 3.634 -2.7514 7.164 -7.7846 6.703 -10.124 c -0.24 -1.5366 -1.269 -4.5324 -2.328 -4.6567 c -0.812 -0.0705 -1.341 0.1412 -2.117 0.9173 c -3.21 3.4733 -7.063 12.177 -7.761 16.087 c -1.159 1.447 -9.243 4.887 -11.218 4.339 c -1.457 -0.4992 -2.329 -3.493 -1.447 -6.668 c 0.388 -1.4107 0.933 -2.9332 1.235 -3.4568 s 1.129 -1.6933 1.87 -2.6458 c 0.741 -0.9878 2.575 -2.8928 3.457 -4.2334 c 0.882 -1.3758 0.069 -0.2192 1.905 -3.175 c 0.525 -0.8592 5.092 -8.756 7.444 -14.005 c 0.67 -1.3758 1.094 -2.7352 1.199 -3.0691 c 2.268 -7.2467 4.514 -12.469 2.403 -20.779 c -0.756 -0.0657 -0.692 3.3873 -0.674 4.6919 c -0.903 13.956 -6.253 26.711 -14.817 36.76 c -1.552 1.8344 -5.391 2.357 -6.4912 2.3988 c -8.1603 0.8936 -11.8998 4.9582 -15.919 9.0918 c -1.1966 1.083 -5.4502 7.892 -2.918 10.17 c 2.9042 2.4714 7.1442 0.6174 9.5238 -1.517 c 1.9424 -1.7616 7.8671 -9.104 10.018 -9.184 c 0.0315 3.025 0.2974 5.2664 2.4709 7.032 c 1.7375 0.9694 5.5155 -0.7726 7.796 -1.623 c 0.5865 -0.2356 3.493 -1.517 4.234 -0.247 c 0.635 1.094 1.5235 3.3004 4.021 2.858 c 5.8735 -1.6226 10.596 -6.212 12.453 -8.044 c 3.211 -3.1393 3.316 -4.6562 4.339 -4.6562 c 6.6965 10.5136 13.587 2.24 20.462 -4.0922 c 0.3985 -0.4432 0.8805 -0.9352 1.234 -1.3053 c 0.4765 -0.4299 0.8775 -0.7969 1.094 -0.9878 c 0.2155 -0.2081 1.411 -1.4111 2.54 -2.7164 c 1.728 -1.9755 9.061 -11.577 9.802 -11.506 c -21.104 45.097 -17.635 103.53 -52.1 133.99 z m 5.962 -120.19 c 0.861 3.2414 -5.428 11.546 -7.761 11.219 c 0.048 -2.5373 3.761 -9.4532 5.256 -11.219 c 0.388 -0.4233 1.058 -0.7761 1.517 -0.7761 c 0.494 0 0.847 0.2822 0.988 0.7761 z m -23.142 4.5861 c 0.881 0.8819 -0.671 2.9986 -3.5282 5.9617 c -1.6228 1.694 -3.4925 3.74 -4.2334 4.622 c -1.0936 1.34 -5.4038 5.318 -7.7674 6.552 c -2.9634 1.517 -5.5676 -1.755 -3.4509 -4.93 c 2.5753 -3.88 6.5176 -8.6187 11.245 -10.665 c 2.0461 -0.882 7.1351 -2.1406 7.7351 -1.5409 z m 22.754 115.18 c -6.214 14.551 -16.212 54.029 -24.739 48.528 c -5.4535 -5.153 -1.834 -19.326 0.6544 -23.688 c 3.3347 -6.048 5.9707 -9.154 10.15 -13.339 c 5.1546 -5.6101 13.723 -14.64 13.935 -11.501 z" fill="#000"/>
    </mask>
    <g mask="url(#c)">
        <g stroke="#000" stroke-width="4">
            <path class="ovCZOdhY_8" d="m100.5 94.5c-2-2.5-21.5 10-20 14s1.0092 8.51 14-4c13.5-13 32.5-50 26-55.5"/>
            <path class="ovCZOdhY_9" d="m101 98c-1.5 5.167-1.9033 14.19 10 8 12.5-6.5 14.5-13.833 14-16.5-0.656-3.5-3-2.6-7 3-5 7-2.5 14-2.5 14.5s1.5 5 8-1c5.2-4.8 14.667-15 18-18.5"/>
            <path class="ovCZOdhY_10" d="m135.5 96c1.667 2.8333 6.4 7.3 12 2.5s19-21 25-28.5"/>
            <path class="ovCZOdhY_11" d="m174.5 67.5c-5.833 13.833-16 41.5-16.5 47.5-0.404 4.849-13.333 49.667-20.5 71.5"/>
            <path class="ovCZOdhY_12" d="m137 185.5c-6.333 12.333-18.9 38.3-18.5 39.5 0.5 1.5-9 27-11 28.5s-7.5 16.5-12.5-2c-5-18.5 20-35.529 20-36.029 0-0.4 24.667-24.167 37-36"/>
        </g>
    </g>
    <mask id="b" x="174" y="151" width="44" height="44" style="mask-type:alpha" maskUnits="userSpaceOnUse">
        <path class="ovCZOdhY_13" d="m193.47 164.16c-.707.707-.917 1.164-1.905 1.164c-.987 0-1.481-.317-2.822-1.799c-.882-.987-1.475-2.097-1.623-2.328c-.975-2.014-4.792-6.016-7.003-4.314c-8.967 5.935-5.639 21.175.659 30.666c10.515 11.919 18.032 7.092 25.394-5.326c4.325-6.894 7.67-12.82 10.407-19.58c.812-1.975.706-6.702-.176-8.184c-.859-1.713-4.203-3.176-5.256-2.858c-7.557 2.199-10.441 5.742-17.675 12.559zm19.65-9.348c1.235 1.093 3.166 2.374-.282 11.747c-.29.826-.316 1.04-.811 2.329c-7.522 11.995-16.713 35.813-30.657 15.24c-4.138-5.899-6.368-13.964-3.704-20.567c1.587-3.599 1.937-4.471 3.246-4.163c4.401 1.056 5.338 6.147 8.995 7.655c1.482.529 2.052.94 2.999.212c3.851-3.342 6.528-6.617 10.089-10.054c2.656-2.495 6.668-2.893 8.608-2.964c.494-.035 1.164.212 1.517.565z" fill="#000"/>
    </mask>
    <g mask="url(#b)">
        <path class="ovCZOdhY_14" d="m178 161c1.6-8.4 8 0.167 11 5.5h4.5c2 0 1-1 10-10.5s12-1 12 3.5c0 3.536-6.5 13.5-12 25s-18.5 13.5-24.5-3-3-10-1-20.5z" stroke="#000" stroke-width="5"/>
    </g>
    <style>
<!--            .ovCZOdhY_0 {-->
<!--            stroke-dasharray: 1265 1267;-->
<!--            stroke-dashoffset: 1266;-->
<!--            animation: ovCZOdhY_draw 1322ms ease-in 0ms forwards;-->
<!--            }-->

<!--            .ovCZOdhY_1 {-->
<!--            stroke-dasharray: 1265 1267;-->
<!--            stroke-dashoffset: 1266;-->
<!--            animation: ovCZOdhY_draw 1322ms ease-in 1322ms forwards;-->
<!--            }-->

        .ovCZOdhY_2 {
        stroke-dasharray: 445 447;
        stroke-dashoffset: 446;
        animation: ovCZOdhY_draw 700ms ease-in 100ms forwards;
        }

        .ovCZOdhY_3 {
        stroke-dasharray: 68 70;
        stroke-dashoffset: 69;
        animation: ovCZOdhY_draw 250ms ease-in 800ms forwards;
        }

        .ovCZOdhY_4 {
        stroke-dasharray: 121 123;
        stroke-dashoffset: 122;
        animation: ovCZOdhY_draw 450ms ease-in-out 1050ms forwards;
        }

<!--        .ovCZOdhY_5 {-->
<!--        stroke-dasharray: 330 332;-->
<!--        stroke-dashoffset: 331;-->
<!--        animation: ovCZOdhY_draw 345ms ease-in 1350ms forwards;-->
<!--        }-->

        .ovCZOdhY_6 {
        stroke-dasharray: 164 166;
        stroke-dashoffset: 165;
        animation: ovCZOdhY_draw 300ms ease-in-out 1500ms forwards;
        }

<!--        .ovCZOdhY_7 {-->
<!--        stroke-dasharray: 1077 1079;-->
<!--        stroke-dashoffset: 1078;-->
<!--        animation: ovCZOdhY_draw 1125ms ease-in 1161ms forwards;-->
<!--        }-->

        .ovCZOdhY_8 {
        stroke-dasharray: 109 111;
        stroke-dashoffset: 110;
        animation: ovCZOdhY_draw 350ms ease-in-out 1800ms forwards;
        }

        .ovCZOdhY_9 {
        stroke-dasharray: 104 106;
        stroke-dashoffset: 105;
        animation: ovCZOdhY_draw 300ms ease-in 2150ms forwards;
        }

        .ovCZOdhY_10 {
        stroke-dasharray: 53 55;
        stroke-dashoffset: 54;
        animation: ovCZOdhY_draw 350ms ease-out 2450ms forwards;
        }

        .ovCZOdhY_11 {
        stroke-dasharray: 125 127;
        stroke-dashoffset: 126;
        animation: ovCZOdhY_draw 300ms ease-in 2800ms forwards;
        }

        .ovCZOdhY_12 {
        stroke-dasharray: 192 194;
        stroke-dashoffset: 193;
        animation: ovCZOdhY_draw 400ms ease-out 3100ms forwards;
        }

<!--        .ovCZOdhY_13 {-->
<!--        stroke-dasharray: 273 275;-->
<!--        stroke-dashoffset: 274;-->
<!--        animation: ovCZOdhY_draw 286ms ease-in 2892ms forwards;-->
<!--        }-->

        .ovCZOdhY_14 {
        stroke-dasharray: 139 141;
        stroke-dashoffset: 140;
        animation: ovCZOdhY_draw 500ms ease-in-out 3500ms forwards;
        }

        @keyframes ovCZOdhY_draw {
        100% {
        stroke-dashoffset: 0;
        }
        }

        @keyframes ovCZOdhY_fade {
        0% {
        stroke-opacity: 1;
        }
        96.07843137254902% {
        stroke-opacity: 1;
        }
        100% {
        stroke-opacity: 0;
        }
        }

    </style>
</svg>
